<svg xmlns="http://www.w3.org/2000/svg" viewBox="0 0 800 500" width="800" height="500">
  <defs>
    <marker id="arrowA" markerWidth="10" markerHeight="7" refX="9" refY="3.5" orient="auto">
      <polygon points="0 0, 10 3.5, 0 7" fill="#7c3aed"/>
    </marker>
    <marker id="arrowB" markerWidth="10" markerHeight="7" refX="9" refY="3.5" orient="auto">
      <polygon points="0 0, 10 3.5, 0 7" fill="#10b981"/>
    </marker>
    <marker id="arrowC" markerWidth="10" markerHeight="7" refX="9" refY="3.5" orient="auto">
      <polygon points="0 0, 10 3.5, 0 7" fill="#2563eb"/>
    </marker>
    <marker id="arrowE" markerWidth="10" markerHeight="7" refX="9" refY="3.5" orient="auto">
      <polygon points="0 0, 10 3.5, 0 7" fill="#f97316"/>
    </marker>
    <marker id="arrowF" markerWidth="10" markerHeight="7" refX="9" refY="3.5" orient="auto">
      <polygon points="0 0, 10 3.5, 0 7" fill="#7c3aed"/>
    </marker>
    <marker id="arrowG" markerWidth="10" markerHeight="7" refX="9" refY="3.5" orient="auto">
      <polygon points="0 0, 10 3.5, 0 7" fill="#ef4444"/>
    </marker>
    <marker id="arrowH" markerWidth="10" markerHeight="7" refX="9" refY="3.5" orient="auto">
      <polygon points="0 0, 10 3.5, 0 7" fill="#6b7280"/>
    </marker>
    <filter id="shadowSoft" x="-20%" y="-20%" width="140%" height="160%">
      <feDropShadow dx="0" dy="3" stdDeviation="6" flood-color="#0f172a" flood-opacity="0.12"/>
    </filter>
    <filter id="shadowGlass" x="-20%" y="-20%" width="140%" height="160%">
      <feDropShadow dx="0" dy="10" stdDeviation="16" flood-color="#020617" flood-opacity="0.28"/>
    </filter>
    <style>
    text { font-family: 'Helvetica Neue', Helvetica, Arial, 'PingFang SC', 'Microsoft YaHei', 'Microsoft JhengHei', 'SimHei', sans-serif; }
    .title { font-size: 30px; font-weight: 700; fill: #111827; }
    .subtitle { font-size: 14px; font-weight: 500; fill: #6b7280; }
    .section { font-size: 13px; font-weight: 700; fill: #2563eb; letter-spacing: 1.4px; }
    .section-sub { font-size: 12px; font-weight: 500; fill: #94a3b8; }
    .node-title { font-size: 18px; font-weight: 700; fill: #111827; }
    .node-sub { font-size: 12px; font-weight: 500; fill: #6b7280; }
    .node-type { font-size: 12px; font-weight: 700; fill: #9ca3af; letter-spacing: 0.08em; }
    .arrow-label { font-size: 12px; font-weight: 600; fill: #6b7280; }
    .legend { font-size: 12px; font-weight: 500; fill: #6b7280; }
    .footnote { font-size: 12px; font-weight: 500; fill: #94a3b8; }
    </style>
  </defs>
  <rect width="800.0" height="500.0" fill="#ffffff"/>
  <text x="400.0" y="56" text-anchor="middle" class="title">线上问题排查系列一：CPU 100% 了怎么办？一次 Arthas 定位实战</text>
  <path d="M 410.0,116.0 L 190.0,160.0" fill="none" stroke="#7c3aed" stroke-width="2.4" marker-end="url(#arrowA)"/>
  <path d="M 410.0,116.0 L 400.0,160.0" fill="none" stroke="#7c3aed" stroke-width="2.4" marker-end="url(#arrowA)"/>
  <path d="M 410.0,116.0 L 610.0,160.0" fill="none" stroke="#7c3aed" stroke-width="2.4" marker-end="url(#arrowA)"/>
  <path d="M 190.0,236.0 L 190.0,300.0" fill="none" stroke="#7c3aed" stroke-width="2.4" marker-end="url(#arrowA)"/>
  <path d="M 400.0,236.0 L 190.0,300.0" fill="none" stroke="#7c3aed" stroke-width="2.4" marker-end="url(#arrowA)"/>
  <path d="M 520.0,198.0 L 280.0,338.0" fill="none" stroke="#7c3aed" stroke-width="2.4" marker-end="url(#arrowA)"/>
  <path d="M 280.0,338.0 L 310.0,338.0" fill="none" stroke="#7c3aed" stroke-width="2.4" marker-end="url(#arrowA)"/>
  <path d="M 490.0,338.0 L 520.0,338.0" fill="none" stroke="#7c3aed" stroke-width="2.4" marker-end="url(#arrowA)"/>
  <rect x="320.0" y="40.0" width="180.0" height="76.0" rx="10.0" fill="#ffffff" stroke="#d1d5db" stroke-width="2.0" filter="url(#shadowSoft)"/>
  <text x="410.0" y="78.0" text-anchor="middle" class="node-title">CPU 告警</text>
  <rect x="100.0" y="160.0" width="180.0" height="76.0" rx="10.0" fill="#ffffff" stroke="#d1d5db" stroke-width="2.0" filter="url(#shadowSoft)"/>
  <text x="190.0" y="198.0" text-anchor="middle" class="node-title">top -c 进程级</text>
  <rect x="310.0" y="160.0" width="180.0" height="76.0" rx="10.0" fill="#ffffff" stroke="#d1d5db" stroke-width="2.0" filter="url(#shadowSoft)"/>
  <text x="400.0" y="198.0" text-anchor="middle" class="node-title">top -Hp 线程级</text>
  <rect x="520.0" y="160.0" width="180.0" height="76.0" rx="10.0" fill="#ffffff" stroke="#d1d5db" stroke-width="2.0" filter="url(#shadowSoft)"/>
  <text x="610.0" y="198.0" text-anchor="middle" class="node-title">Arthas thread</text>
  <rect x="100.0" y="300.0" width="180.0" height="76.0" rx="10.0" fill="#ffffff" stroke="#d1d5db" stroke-width="2.0" filter="url(#shadowSoft)"/>
  <text x="190.0" y="338.0" text-anchor="middle" class="node-title">trace 方法耗时</text>
  <rect x="310.0" y="300.0" width="180.0" height="76.0" rx="10.0" fill="#ffffff" stroke="#d1d5db" stroke-width="2.0" filter="url(#shadowSoft)"/>
  <text x="400.0" y="338.0" text-anchor="middle" class="node-title">定位根因</text>
  <rect x="520.0" y="300.0" width="180.0" height="76.0" rx="10.0" fill="#ffffff" stroke="#d1d5db" stroke-width="2.0" filter="url(#shadowSoft)"/>
  <text x="610.0" y="338.0" text-anchor="middle" class="node-title">观察确认</text>
  <rect x="151.0" y="254.0" width="42" height="20" rx="6" fill="#ffffff" opacity="0.94"/>
  <text x="172.0" y="268.0" text-anchor="middle" class="arrow-label">发现热点</text>
  <rect x="274.0" y="238.0" width="42" height="20" rx="6" fill="#ffffff" opacity="0.94"/>
  <text x="295.0" y="252.0" text-anchor="middle" class="arrow-label">定位线程</text>
  <rect x="382.0" y="238.0" width="36" height="20" rx="6" fill="#ffffff" opacity="0.94"/>
  <text x="400.0" y="252.0" text-anchor="middle" class="arrow-label">方法级</text>
  <rect x="277.0" y="324.0" width="36" height="20" rx="6" fill="#ffffff" opacity="0.94"/>
  <text x="295.0" y="338.0" text-anchor="middle" class="arrow-label">定位</text>
  <rect x="487.0" y="324.0" width="36" height="20" rx="6" fill="#ffffff" opacity="0.94"/>
  <text x="505.0" y="338.0" text-anchor="middle" class="arrow-label">验证</text>
</svg>