<svg xmlns="http://www.w3.org/2000/svg" viewBox="0 0 960 500" width="960" height="500">
  <defs>
    <marker id="arrowA" markerWidth="10" markerHeight="7" refX="9" refY="3.5" orient="auto">
      <polygon points="0 0, 10 3.5, 0 7" fill="#7c3aed"/>
    </marker>
    <marker id="arrowB" markerWidth="10" markerHeight="7" refX="9" refY="3.5" orient="auto">
      <polygon points="0 0, 10 3.5, 0 7" fill="#10b981"/>
    </marker>
    <marker id="arrowC" markerWidth="10" markerHeight="7" refX="9" refY="3.5" orient="auto">
      <polygon points="0 0, 10 3.5, 0 7" fill="#2563eb"/>
    </marker>
    <marker id="arrowE" markerWidth="10" markerHeight="7" refX="9" refY="3.5" orient="auto">
      <polygon points="0 0, 10 3.5, 0 7" fill="#f97316"/>
    </marker>
    <marker id="arrowF" markerWidth="10" markerHeight="7" refX="9" refY="3.5" orient="auto">
      <polygon points="0 0, 10 3.5, 0 7" fill="#7c3aed"/>
    </marker>
    <marker id="arrowG" markerWidth="10" markerHeight="7" refX="9" refY="3.5" orient="auto">
      <polygon points="0 0, 10 3.5, 0 7" fill="#ef4444"/>
    </marker>
    <marker id="arrowH" markerWidth="10" markerHeight="7" refX="9" refY="3.5" orient="auto">
      <polygon points="0 0, 10 3.5, 0 7" fill="#6b7280"/>
    </marker>
    <filter id="shadowSoft" x="-20%" y="-20%" width="140%" height="160%">
      <feDropShadow dx="0" dy="3" stdDeviation="6" flood-color="#0f172a" flood-opacity="0.12"/>
    </filter>
    <filter id="shadowGlass" x="-20%" y="-20%" width="140%" height="160%">
      <feDropShadow dx="0" dy="10" stdDeviation="16" flood-color="#020617" flood-opacity="0.28"/>
    </filter>
    <style>
    text { font-family: 'Helvetica Neue', Helvetica, Arial, 'PingFang SC', 'Microsoft YaHei', 'Microsoft JhengHei', 'SimHei', sans-serif; }
    .title { font-size: 30px; font-weight: 700; fill: #111827; }
    .subtitle { font-size: 14px; font-weight: 500; fill: #6b7280; }
    .section { font-size: 13px; font-weight: 700; fill: #2563eb; letter-spacing: 1.4px; }
    .section-sub { font-size: 12px; font-weight: 500; fill: #94a3b8; }
    .node-title { font-size: 18px; font-weight: 700; fill: #111827; }
    .node-sub { font-size: 12px; font-weight: 500; fill: #6b7280; }
    .node-type { font-size: 12px; font-weight: 700; fill: #9ca3af; letter-spacing: 0.08em; }
    .arrow-label { font-size: 12px; font-weight: 600; fill: #6b7280; }
    .legend { font-size: 12px; font-weight: 500; fill: #6b7280; }
    .footnote { font-size: 12px; font-weight: 500; fill: #94a3b8; }
    </style>
  </defs>
  <rect width="960.0" height="500.0" fill="#ffffff"/>
  <text x="480.0" y="56" text-anchor="middle" class="title">面向面试之 Redis 系列一：五种存储类型的高级用法，90% 的人只知道 String 和 List</text>
  <path d="M 260.0,138.0 L 400.0,138.0" fill="none" stroke="#7c3aed" stroke-width="2.4" marker-end="url(#arrowA)"/>
  <path d="M 490.0,176.0 L 210.0,310.0" fill="none" stroke="#7c3aed" stroke-width="2.4" marker-end="url(#arrowA)"/>
  <path d="M 490.0,176.0 L 420.0,310.0" fill="none" stroke="#7c3aed" stroke-width="2.4" marker-end="url(#arrowA)"/>
  <path d="M 490.0,176.0 L 640.0,310.0" fill="none" stroke="#7c3aed" stroke-width="2.4" marker-end="url(#arrowA)"/>
  <path d="M 490.0,176.0 L 870.0,310.0" fill="none" stroke="#7c3aed" stroke-width="2.4" marker-end="url(#arrowA)"/>
  <rect x="80.0" y="100.0" width="180.0" height="76.0" rx="10.0" fill="#ffffff" stroke="#d1d5db" stroke-width="1.8" filter="url(#shadowSoft)"/>
  <text x="170.0" y="138.0" text-anchor="middle" class="node-title">应用服务</text>
  <rect x="400.0" y="100.0" width="180.0" height="76.0" rx="10.0" fill="#ffffff" stroke="#d1d5db" stroke-width="1.8" filter="url(#shadowSoft)"/>
  <text x="490.0" y="138.0" text-anchor="middle" class="node-title">Redis 服务</text>
  <rect x="120.0" y="310.0" width="180.0" height="76.0" rx="10.0" fill="#ffffff" stroke="#d1d5db" stroke-width="1.8" filter="url(#shadowSoft)"/>
  <text x="210.0" y="348.0" text-anchor="middle" class="node-title">缓存热点数据</text>
  <rect x="330.0" y="310.0" width="180.0" height="76.0" rx="10.0" fill="#ffffff" stroke="#d1d5db" stroke-width="1.8" filter="url(#shadowSoft)"/>
  <text x="420.0" y="348.0" text-anchor="middle" class="node-title">分布式锁</text>
  <rect x="550.0" y="310.0" width="180.0" height="76.0" rx="10.0" fill="#ffffff" stroke="#d1d5db" stroke-width="1.8" filter="url(#shadowSoft)"/>
  <text x="640.0" y="348.0" text-anchor="middle" class="node-title">数据结构操作</text>
  <rect x="780.0" y="310.0" width="180.0" height="76.0" rx="10.0" fill="#ffffff" stroke="#d1d5db" stroke-width="1.8" filter="url(#shadowSoft)"/>
  <text x="870.0" y="348.0" text-anchor="middle" class="node-title">消息 Pub/Sub</text>
  <rect x="312.0" y="108.0" width="36" height="20" rx="6" fill="#ffffff" opacity="0.94"/>
  <text x="330.0" y="122.0" text-anchor="middle" class="arrow-label">请求</text>
  <rect x="332.0" y="213.0" width="36" height="20" rx="6" fill="#ffffff" opacity="0.94"/>
  <text x="350.0" y="227.0" text-anchor="middle" class="arrow-label">缓存</text>
  <rect x="437.0" y="213.0" width="36" height="20" rx="6" fill="#ffffff" opacity="0.94"/>
  <text x="455.0" y="227.0" text-anchor="middle" class="arrow-label">锁操作</text>
  <rect x="544.0" y="213.0" width="42" height="20" rx="6" fill="#ffffff" opacity="0.94"/>
  <text x="565.0" y="227.0" text-anchor="middle" class="arrow-label">数据操作</text>
  <rect x="659.0" y="213.0" width="42" height="20" rx="6" fill="#ffffff" opacity="0.94"/>
  <text x="680.0" y="227.0" text-anchor="middle" class="arrow-label">发布订阅</text>
</svg>