<svg xmlns="http://www.w3.org/2000/svg" viewBox="0 0 800 700" width="800" height="700">
  <defs>
    <marker id="arrowA" markerWidth="10" markerHeight="7" refX="9" refY="3.5" orient="auto">
      <polygon points="0 0, 10 3.5, 0 7" fill="#7c3aed"/>
    </marker>
    <marker id="arrowB" markerWidth="10" markerHeight="7" refX="9" refY="3.5" orient="auto">
      <polygon points="0 0, 10 3.5, 0 7" fill="#10b981"/>
    </marker>
    <marker id="arrowC" markerWidth="10" markerHeight="7" refX="9" refY="3.5" orient="auto">
      <polygon points="0 0, 10 3.5, 0 7" fill="#2563eb"/>
    </marker>
    <marker id="arrowE" markerWidth="10" markerHeight="7" refX="9" refY="3.5" orient="auto">
      <polygon points="0 0, 10 3.5, 0 7" fill="#f97316"/>
    </marker>
    <marker id="arrowF" markerWidth="10" markerHeight="7" refX="9" refY="3.5" orient="auto">
      <polygon points="0 0, 10 3.5, 0 7" fill="#7c3aed"/>
    </marker>
    <marker id="arrowG" markerWidth="10" markerHeight="7" refX="9" refY="3.5" orient="auto">
      <polygon points="0 0, 10 3.5, 0 7" fill="#ef4444"/>
    </marker>
    <marker id="arrowH" markerWidth="10" markerHeight="7" refX="9" refY="3.5" orient="auto">
      <polygon points="0 0, 10 3.5, 0 7" fill="#6b7280"/>
    </marker>
    <filter id="shadowSoft" x="-20%" y="-20%" width="140%" height="160%">
      <feDropShadow dx="0" dy="3" stdDeviation="6" flood-color="#0f172a" flood-opacity="0.12"/>
    </filter>
    <filter id="shadowGlass" x="-20%" y="-20%" width="140%" height="160%">
      <feDropShadow dx="0" dy="10" stdDeviation="16" flood-color="#020617" flood-opacity="0.28"/>
    </filter>
    <style>
    text { font-family: 'Helvetica Neue', Helvetica, Arial, 'PingFang SC', 'Microsoft YaHei', 'Microsoft JhengHei', 'SimHei', sans-serif; }
    .title { font-size: 30px; font-weight: 700; fill: #111827; }
    .subtitle { font-size: 14px; font-weight: 500; fill: #6b7280; }
    .section { font-size: 13px; font-weight: 700; fill: #2563eb; letter-spacing: 1.4px; }
    .section-sub { font-size: 12px; font-weight: 500; fill: #94a3b8; }
    .node-title { font-size: 18px; font-weight: 700; fill: #111827; }
    .node-sub { font-size: 12px; font-weight: 500; fill: #6b7280; }
    .node-type { font-size: 12px; font-weight: 700; fill: #9ca3af; letter-spacing: 0.08em; }
    .arrow-label { font-size: 12px; font-weight: 600; fill: #6b7280; }
    .legend { font-size: 12px; font-weight: 500; fill: #6b7280; }
    .footnote { font-size: 12px; font-weight: 500; fill: #94a3b8; }
    </style>
  </defs>
  <rect width="800.0" height="700.0" fill="#ffffff"/>
  <text x="400.0" y="56" text-anchor="middle" class="title">线上问题排查系列二：Java 内存泄漏——从堆转储到源码修复，完整记录</text>
  <path d="M 370.0,96.0 L 370.0,110.0" fill="none" stroke="#7c3aed" stroke-width="2.4" marker-end="url(#arrowA)"/>
  <path d="M 370.0,186.0 L 370.0,210.0" fill="none" stroke="#7c3aed" stroke-width="2.4" marker-end="url(#arrowA)"/>
  <path d="M 370.0,286.0 L 370.0,310.0" fill="none" stroke="#7c3aed" stroke-width="2.4" marker-end="url(#arrowA)"/>
  <path d="M 370.0,386.0 L 370.0,410.0" fill="none" stroke="#7c3aed" stroke-width="2.4" marker-end="url(#arrowA)"/>
  <path d="M 370.0,486.0 L 370.0,510.0" fill="none" stroke="#7c3aed" stroke-width="2.4" marker-end="url(#arrowA)"/>
  <path d="M 370.0,586.0 L 370.0,610.0" fill="none" stroke="#7c3aed" stroke-width="2.4" marker-end="url(#arrowA)"/>
  <rect x="280.0" y="20.0" width="180.0" height="76.0" rx="10.0" fill="#ffffff" stroke="#d1d5db" stroke-width="2.0" filter="url(#shadowSoft)"/>
  <text x="370.0" y="58.0" text-anchor="middle" class="node-title">告警
内存95%</text>
  <rect x="280.0" y="110.0" width="180.0" height="76.0" rx="10.0" fill="#ffffff" stroke="#d1d5db" stroke-width="2.0" filter="url(#shadowSoft)"/>
  <text x="370.0" y="148.0" text-anchor="middle" class="node-title">jstat -gcutil
看老年代+GC频率</text>
  <rect x="280.0" y="210.0" width="180.0" height="76.0" rx="10.0" fill="#ffffff" stroke="#d1d5db" stroke-width="2.0" filter="url(#shadowSoft)"/>
  <text x="370.0" y="248.0" text-anchor="middle" class="node-title">jmap -dump:live
dump堆转储</text>
  <rect x="280.0" y="310.0" width="180.0" height="76.0" rx="10.0" fill="#ffffff" stroke="#d1d5db" stroke-width="2.0" filter="url(#shadowSoft)"/>
  <text x="370.0" y="348.0" text-anchor="middle" class="node-title">MAT Leak Suspects
分析大对象</text>
  <rect x="280.0" y="410.0" width="180.0" height="76.0" rx="10.0" fill="#ffffff" stroke="#d1d5db" stroke-width="2.0" filter="url(#shadowSoft)"/>
  <text x="370.0" y="448.0" text-anchor="middle" class="node-title">追源码
找到未remove的HashMap</text>
  <rect x="280.0" y="510.0" width="180.0" height="76.0" rx="10.0" fill="#ffffff" stroke="#d1d5db" stroke-width="2.0" filter="url(#shadowSoft)"/>
  <text x="370.0" y="548.0" text-anchor="middle" class="node-title">修复
加Caffeine缓存限容</text>
  <rect x="280.0" y="610.0" width="180.0" height="76.0" rx="10.0" fill="#ffffff" stroke="#d1d5db" stroke-width="2.0" filter="url(#shadowSoft)"/>
  <text x="370.0" y="648.0" text-anchor="middle" class="node-title">观察24h
老年代稳定35%</text>
  <rect x="352.0" y="89.0" width="36" height="20" rx="6" fill="#ffffff" opacity="0.94"/>
  <text x="370.0" y="103.0" text-anchor="middle" class="arrow-label">排查</text>
  <rect x="349.0" y="184.0" width="42" height="20" rx="6" fill="#ffffff" opacity="0.94"/>
  <text x="370.0" y="198.0" text-anchor="middle" class="arrow-label">确认泄漏</text>
  <rect x="352.0" y="284.0" width="36" height="20" rx="6" fill="#ffffff" opacity="0.94"/>
  <text x="370.0" y="298.0" text-anchor="middle" class="arrow-label">分析</text>
  <rect x="352.0" y="384.0" width="36" height="20" rx="6" fill="#ffffff" opacity="0.94"/>
  <text x="370.0" y="398.0" text-anchor="middle" class="arrow-label">定位</text>
  <rect x="352.0" y="484.0" width="36" height="20" rx="6" fill="#ffffff" opacity="0.94"/>
  <text x="370.0" y="498.0" text-anchor="middle" class="arrow-label">修改</text>
  <rect x="352.0" y="584.0" width="36" height="20" rx="6" fill="#ffffff" opacity="0.94"/>
  <text x="370.0" y="598.0" text-anchor="middle" class="arrow-label">验证</text>
</svg>