<svg xmlns="http://www.w3.org/2000/svg" viewBox="0 0 800 500" width="800" height="500">
  <defs>
    <marker id="arrowA" markerWidth="10" markerHeight="7" refX="9" refY="3.5" orient="auto">
      <polygon points="0 0, 10 3.5, 0 7" fill="#7c3aed"/>
    </marker>
    <marker id="arrowB" markerWidth="10" markerHeight="7" refX="9" refY="3.5" orient="auto">
      <polygon points="0 0, 10 3.5, 0 7" fill="#10b981"/>
    </marker>
    <marker id="arrowC" markerWidth="10" markerHeight="7" refX="9" refY="3.5" orient="auto">
      <polygon points="0 0, 10 3.5, 0 7" fill="#2563eb"/>
    </marker>
    <marker id="arrowE" markerWidth="10" markerHeight="7" refX="9" refY="3.5" orient="auto">
      <polygon points="0 0, 10 3.5, 0 7" fill="#f97316"/>
    </marker>
    <marker id="arrowF" markerWidth="10" markerHeight="7" refX="9" refY="3.5" orient="auto">
      <polygon points="0 0, 10 3.5, 0 7" fill="#7c3aed"/>
    </marker>
    <marker id="arrowG" markerWidth="10" markerHeight="7" refX="9" refY="3.5" orient="auto">
      <polygon points="0 0, 10 3.5, 0 7" fill="#ef4444"/>
    </marker>
    <marker id="arrowH" markerWidth="10" markerHeight="7" refX="9" refY="3.5" orient="auto">
      <polygon points="0 0, 10 3.5, 0 7" fill="#6b7280"/>
    </marker>
    <filter id="shadowSoft" x="-20%" y="-20%" width="140%" height="160%">
      <feDropShadow dx="0" dy="3" stdDeviation="6" flood-color="#0f172a" flood-opacity="0.12"/>
    </filter>
    <filter id="shadowGlass" x="-20%" y="-20%" width="140%" height="160%">
      <feDropShadow dx="0" dy="10" stdDeviation="16" flood-color="#020617" flood-opacity="0.28"/>
    </filter>
    <style>
    text { font-family: 'Helvetica Neue', Helvetica, Arial, 'PingFang SC', 'Microsoft YaHei', 'Microsoft JhengHei', 'SimHei', sans-serif; }
    .title { font-size: 30px; font-weight: 700; fill: #111827; }
    .subtitle { font-size: 14px; font-weight: 500; fill: #6b7280; }
    .section { font-size: 13px; font-weight: 700; fill: #2563eb; letter-spacing: 1.4px; }
    .section-sub { font-size: 12px; font-weight: 500; fill: #94a3b8; }
    .node-title { font-size: 18px; font-weight: 700; fill: #111827; }
    .node-sub { font-size: 12px; font-weight: 500; fill: #6b7280; }
    .node-type { font-size: 12px; font-weight: 700; fill: #9ca3af; letter-spacing: 0.08em; }
    .arrow-label { font-size: 12px; font-weight: 600; fill: #6b7280; }
    .legend { font-size: 12px; font-weight: 500; fill: #6b7280; }
    .footnote { font-size: 12px; font-weight: 500; fill: #94a3b8; }
    </style>
  </defs>
  <rect width="800.0" height="500.0" fill="#ffffff"/>
  <text x="400.0" y="56" text-anchor="middle" class="title">线上问题排查系列二：Java 内存泄漏——从堆转储到源码修复，完整记录</text>
  <path d="M 390.0,116.0 L 170.0,170.0" fill="none" stroke="#7c3aed" stroke-width="2.4" marker-end="url(#arrowA)"/>
  <path d="M 390.0,116.0 L 400.0,170.0" fill="none" stroke="#7c3aed" stroke-width="2.4" marker-end="url(#arrowA)"/>
  <path d="M 390.0,116.0 L 630.0,170.0" fill="none" stroke="#7c3aed" stroke-width="2.4" marker-end="url(#arrowA)"/>
  <path d="M 170.0,246.0 L 170.0,310.0" fill="none" stroke="#7c3aed" stroke-width="2.4" marker-end="url(#arrowA)"/>
  <path d="M 490.0,208.0 L 540.0,208.0" fill="none" stroke="#7c3aed" stroke-width="2.4" marker-end="url(#arrowA)"/>
  <path d="M 540.0,208.0 L 260.0,348.0" fill="none" stroke="#7c3aed" stroke-width="2.4" marker-end="url(#arrowA)"/>
  <path d="M 260.0,348.0 L 310.0,348.0" fill="none" stroke="#7c3aed" stroke-width="2.4" marker-end="url(#arrowA)"/>
  <path d="M 490.0,348.0 L 540.0,348.0" fill="none" stroke="#7c3aed" stroke-width="2.4" marker-end="url(#arrowA)"/>
  <rect x="300.0" y="40.0" width="180.0" height="76.0" rx="10.0" fill="#ffffff" stroke="#d1d5db" stroke-width="2.0" filter="url(#shadowSoft)"/>
  <text x="390.0" y="78.0" text-anchor="middle" class="node-title">内存告警 95%</text>
  <rect x="80.0" y="170.0" width="180.0" height="76.0" rx="10.0" fill="#ffffff" stroke="#d1d5db" stroke-width="2.0" filter="url(#shadowSoft)"/>
  <text x="170.0" y="208.0" text-anchor="middle" class="node-title">jstat 看GC频率</text>
  <rect x="310.0" y="170.0" width="180.0" height="76.0" rx="10.0" fill="#ffffff" stroke="#d1d5db" stroke-width="2.0" filter="url(#shadowSoft)"/>
  <text x="400.0" y="208.0" text-anchor="middle" class="node-title">jmap dump 堆转储</text>
  <rect x="540.0" y="170.0" width="180.0" height="76.0" rx="10.0" fill="#ffffff" stroke="#d1d5db" stroke-width="2.0" filter="url(#shadowSoft)"/>
  <text x="630.0" y="208.0" text-anchor="middle" class="node-title">MAT 分析大对象</text>
  <rect x="80.0" y="310.0" width="180.0" height="76.0" rx="10.0" fill="#ffffff" stroke="#d1d5db" stroke-width="2.0" filter="url(#shadowSoft)"/>
  <text x="170.0" y="348.0" text-anchor="middle" class="node-title">追源码找到泄漏点</text>
  <rect x="310.0" y="310.0" width="180.0" height="76.0" rx="10.0" fill="#ffffff" stroke="#d1d5db" stroke-width="2.0" filter="url(#shadowSoft)"/>
  <text x="400.0" y="348.0" text-anchor="middle" class="node-title">Caffeine 缓存限容</text>
  <rect x="540.0" y="310.0" width="180.0" height="76.0" rx="10.0" fill="#ffffff" stroke="#d1d5db" stroke-width="2.0" filter="url(#shadowSoft)"/>
  <text x="630.0" y="348.0" text-anchor="middle" class="node-title">观察老年代稳定</text>
  <rect x="262.0" y="129.0" width="36" height="20" rx="6" fill="#ffffff" opacity="0.94"/>
  <text x="280.0" y="143.0" text-anchor="middle" class="arrow-label">排查</text>
  <rect x="377.0" y="129.0" width="36" height="20" rx="6" fill="#ffffff" opacity="0.94"/>
  <text x="395.0" y="143.0" text-anchor="middle" class="arrow-label">取证</text>
  <rect x="492.0" y="113.0" width="36" height="20" rx="6" fill="#ffffff" opacity="0.94"/>
  <text x="510.0" y="127.0" text-anchor="middle" class="arrow-label">分析</text>
  <rect x="134.0" y="264.0" width="36" height="20" rx="6" fill="#ffffff" opacity="0.94"/>
  <text x="152.0" y="278.0" text-anchor="middle" class="arrow-label">线索</text>
  <rect x="497.0" y="178.0" width="36" height="20" rx="6" fill="#ffffff" opacity="0.94"/>
  <text x="515.0" y="192.0" text-anchor="middle" class="arrow-label">数据</text>
  <rect x="382.0" y="248.0" width="36" height="20" rx="6" fill="#ffffff" opacity="0.94"/>
  <text x="400.0" y="262.0" text-anchor="middle" class="arrow-label">定位</text>
  <rect x="267.0" y="318.0" width="36" height="20" rx="6" fill="#ffffff" opacity="0.94"/>
  <text x="285.0" y="332.0" text-anchor="middle" class="arrow-label">修复</text>
  <rect x="497.0" y="318.0" width="36" height="20" rx="6" fill="#ffffff" opacity="0.94"/>
  <text x="515.0" y="332.0" text-anchor="middle" class="arrow-label">验证</text>
</svg>